<?xml version="1.0" standalone="no"?>
<!DOCTYPE svg PUBLIC "-//W3C//DTD SVG 20010904//EN"
 "http://www.w3.org/TR/2001/REC-SVG-20010904/DTD/svg10.dtd">
<svg version="1.0" xmlns="http://www.w3.org/2000/svg"
 width="317.000000pt" height="317.000000pt" viewBox="0 0 317.000000 317.000000"
 preserveAspectRatio="xMidYMid meet">
<metadata>
Created by potrace 1.11, written by Peter Selinger 2001-2013
</metadata>
<g transform="translate(0.000000,317.000000) scale(0.100000,-0.100000)"
fill="#000000" stroke="none">
<path d="M2031 3156 c-7 -9 -22 -16 -32 -16 -11 0 -19 -4 -19 -10 0 -5 -16
-10 -36 -10 -21 0 -33 -4 -29 -10 3 -5 -2 -10 -12 -10 -10 0 -24 -9 -31 -20
-7 -11 -19 -20 -27 -20 -8 0 -15 -5 -15 -11 0 -13 -26 -40 -32 -33 -3 2 -10
-7 -16 -21 -10 -21 -9 -26 8 -35 10 -5 36 -10 57 -9 l38 1 -32 9 c-18 5 -33
16 -33 23 0 17 56 66 76 66 8 0 14 5 14 10 0 6 9 10 19 10 11 0 26 6 33 13 7
8 19 12 26 9 6 -2 12 0 12 5 0 4 17 9 37 11 20 1 40 6 43 11 9 16 60 25 60 11
0 -10 3 -10 15 0 12 10 15 10 15 -4 0 -18 15 -22 25 -6 10 16 78 8 92 -10 8
-10 12 -11 13 -2 0 6 7 12 16 12 10 0 14 -6 10 -15 -5 -14 18 -19 97 -18 9 0
17 -4 17 -9 0 -5 4 -7 8 -4 8 5 55 -49 58 -66 1 -5 2 -11 3 -15 1 -5 6 -1 11
7 8 11 9 8 4 -13 -4 -17 -1 -33 7 -43 8 -9 21 -35 30 -57 19 -47 39 -60 39
-24 0 26 -25 83 -41 92 -5 4 -7 11 -4 16 11 17 -7 50 -32 60 -35 13 -21 24 28
20 38 -2 40 -1 37 21 -2 14 -9 22 -18 20 -8 -2 -19 3 -25 11 -5 8 -30 24 -55
37 -41 21 -62 23 -245 28 -176 4 -202 2 -214 -12z"/>
<path d="M2580 3027 c0 -19 20 -36 36 -30 21 8 43 -15 37 -37 -4 -13 0 -20 10
-20 8 0 20 -7 28 -16 11 -13 9 -14 -14 -9 -32 9 -35 -5 -6 -24 17 -10 23 -10
29 -1 4 7 13 9 19 6 20 -13 12 40 -9 59 -11 10 -20 22 -20 26 0 4 -11 19 -24
33 -25 28 -86 37 -86 13z"/>
<path d="M858 3013 c6 -2 18 -2 25 0 6 3 1 5 -13 5 -14 0 -19 -2 -12 -5z"/>
<path d="M935 3009 c-11 -4 -39 -8 -62 -8 -47 -1 -95 -19 -87 -33 4 -5 -15 -7
-43 -4 -26 2 -42 2 -35 -1 10 -4 9 -9 -4 -24 -9 -11 -22 -29 -28 -41 -15 -29
-66 -57 -96 -52 -14 2 -19 1 -12 -2 16 -7 6 -24 -15 -24 -9 0 -35 -19 -57 -43
-23 -24 -53 -51 -68 -60 -56 -35 -132 -215 -142 -337 -4 -44 -3 -57 3 -40 8
22 9 19 11 -20 1 -45 16 -133 19 -115 1 6 4 53 7 105 3 52 9 98 13 103 4 4 13
-26 19 -66 7 -41 18 -82 26 -93 7 -10 18 -39 25 -62 18 -62 25 -45 13 30 -11
71 -6 223 8 279 15 55 51 102 95 123 22 11 48 23 58 28 32 16 265 -48 327 -89
38 -26 90 -89 90 -109 0 -7 11 -26 25 -42 14 -17 25 -37 25 -46 0 -9 4 -16 8
-16 7 0 42 -52 42 -63 0 -6 -22 -13 -148 -47 -71 -19 -108 -34 -122 -50 -21
-24 -26 -50 -11 -50 5 0 21 -20 35 -45 21 -36 35 -47 68 -56 23 -6 53 -8 67
-4 14 3 42 10 61 14 19 5 52 16 72 25 21 9 41 16 46 16 5 0 22 -28 38 -62 25
-56 29 -60 32 -35 4 33 10 34 41 1 13 -14 30 -23 37 -20 16 6 96 -70 118 -113
17 -33 18 -38 3 -161 -5 -41 -18 -72 -43 -99 -12 -13 -20 -29 -17 -34 3 -5 -4
-15 -16 -23 -12 -8 -21 -20 -21 -26 0 -6 -10 -20 -22 -32 -13 -12 -32 -34 -43
-50 -20 -27 -51 -46 -90 -53 -11 -2 -38 -10 -60 -19 -22 -9 -72 -17 -111 -19
-39 -1 -76 -5 -82 -8 -15 -10 -42 3 -42 19 0 12 -4 12 -20 4 -12 -6 -28 -10
-38 -8 -9 1 -23 -1 -31 -6 -11 -7 -13 -4 -9 12 5 16 2 19 -11 14 -14 -5 -14
-4 -1 13 14 17 14 18 -7 6 -19 -10 -23 -9 -23 4 0 10 5 13 11 9 9 -5 10 1 5
22 -4 16 -3 24 1 18 16 -23 52 -35 72 -24 11 5 28 10 38 10 10 0 36 9 58 20
22 11 44 20 50 20 19 0 75 58 75 79 0 10 6 22 13 25 6 3 3 4 -8 1 -65 -14 -78
-14 -40 -1 22 8 53 17 68 20 15 4 25 11 22 16 -16 26 22 6 56 -30 36 -37 39
-38 49 -20 5 10 10 32 10 49 0 30 9 55 35 101 l15 25 0 -26 c0 -31 7 -39 26
-32 16 6 19 39 4 48 -5 3 -7 18 -4 33 7 43 -33 76 -74 61 -16 -6 -24 -5 -28 5
-4 10 -16 13 -41 9 -27 -5 -38 -2 -45 10 -5 10 -16 17 -25 17 -8 0 -40 14 -70
31 -30 17 -57 28 -60 25 -4 -3 2 -21 12 -40 23 -42 14 -57 -47 -75 -24 -7 -52
-19 -64 -26 -28 -18 -54 -20 -87 -7 -15 7 -37 11 -50 9 -20 -2 -22 2 -20 46 2
26 1 47 -2 47 -2 0 -23 -18 -47 -41 -37 -35 -48 -40 -83 -38 -22 2 -49 -2 -60
-8 -19 -11 -19 -12 -1 -70 10 -32 26 -73 37 -91 38 -67 8 -47 -37 23 -20 32
-35 45 -51 45 -16 0 -23 -6 -23 -20 0 -14 -15 -30 -45 -48 -41 -24 -47 -33
-66 -97 -24 -78 -48 -104 -95 -105 -23 0 -36 7 -49 26 -16 25 -16 28 0 58 9
17 15 44 13 60 l-3 29 -82 1 c-83 1 -83 1 -80 -24 1 -19 -2 -24 -15 -22 -17 3
-18 -14 -18 -234 l0 -237 39 6 c22 3 54 12 72 21 18 9 36 16 41 16 5 0 16 7
24 15 9 8 28 15 44 15 35 0 155 24 230 46 30 9 62 17 70 18 29 4 94 29 127 48
25 15 33 17 34 6 0 -7 2 -33 4 -58 2 -25 0 -38 -4 -31 -11 17 -13 13 -51 -99
-18 -52 -37 -101 -42 -107 -14 -17 -79 -152 -88 -183 -5 -14 -16 -43 -25 -65
-14 -32 -14 -37 -2 -27 8 7 20 26 27 42 7 16 16 28 20 25 5 -3 6 4 3 15 -3 11
0 20 6 20 6 0 11 7 11 15 0 23 29 89 36 82 6 -5 0 -25 -39 -140 -11 -31 -18
-60 -15 -62 3 -3 21 2 41 10 59 24 151 17 177 -14 13 -16 53 -31 80 -31 16 0
30 -4 30 -10 0 -5 14 -10 30 -10 17 0 30 -4 30 -10 0 -5 6 -10 13 -10 8 0 24
-9 37 -20 13 -11 27 -20 32 -20 11 0 62 -109 54 -117 -3 -3 -6 -1 -6 6 0 6 -9
21 -20 33 -11 12 -20 16 -20 10 0 -7 -13 -12 -30 -12 -21 0 -30 -5 -30 -16 0
-12 7 -14 30 -9 18 4 30 3 30 -4 0 -14 -34 -23 -62 -16 -16 4 -29 1 -37 -9 -7
-9 -17 -13 -23 -10 -5 3 -4 12 3 20 9 11 8 14 -5 14 -9 0 -16 -3 -16 -8 0 -4
-18 -8 -39 -8 -28 -1 -42 3 -46 15 -5 12 -8 12 -14 3 -5 -9 -26 5 -69 46 -54
51 -69 60 -110 65 -33 4 -52 1 -63 -9 -9 -8 -35 -16 -58 -17 -24 -1 -41 -6
-41 -13 0 -7 -12 -22 -26 -35 -14 -13 -34 -32 -45 -41 -12 -11 -16 -24 -12
-35 6 -15 4 -16 -9 -5 -13 11 -18 5 -36 -40 -27 -70 -35 -108 -22 -108 5 0 10
-8 10 -18 0 -9 9 -23 21 -30 17 -11 20 -20 15 -45 -5 -30 -5 -31 9 -12 9 10
14 24 12 29 -2 6 7 21 20 34 18 17 32 23 53 20 16 -2 27 -1 24 4 -3 4 -22 9
-42 9 -20 1 -29 3 -20 6 10 2 18 9 18 14 0 5 8 9 17 9 15 0 14 2 -3 15 -18 13
-18 14 -1 15 10 0 32 -7 49 -16 22 -11 33 -13 41 -5 8 8 7 11 -5 11 -8 0 -22
7 -29 17 -13 15 -11 15 24 9 48 -9 112 -46 82 -47 -11 0 -14 -3 -7 -6 6 -2 12
-11 12 -18 0 -7 7 -16 16 -19 8 -3 12 -11 9 -17 -4 -6 -13 -8 -21 -5 -8 3 -14
1 -14 -4 0 -6 4 -10 10 -10 5 0 12 -11 16 -25 3 -14 13 -25 21 -25 8 0 11 -4
8 -10 -11 -17 22 -11 82 15 64 29 103 27 103 -5 0 -25 18 -26 27 -3 16 44 50
77 102 100 31 13 63 28 71 32 213 112 222 117 205 129 -6 4 -32 50 -58 102
-27 52 -71 137 -98 188 -27 50 -44 92 -39 92 6 0 10 11 10 24 0 13 7 27 16 30
25 10 84 7 84 -4 0 -16 42 -11 63 7 18 17 19 17 32 0 7 -10 25 -17 44 -17 17
0 31 -5 31 -11 0 -6 7 -8 15 -5 13 5 15 0 9 -28 -5 -29 -2 -36 16 -46 15 -8
19 -17 15 -28 -4 -9 -9 -35 -10 -57 -2 -22 -11 -73 -19 -113 -26 -119 -29
-119 101 -12 7 6 16 10 20 10 4 0 18 15 31 33 12 17 45 57 73 87 28 30 71 90
95 134 53 95 127 282 121 305 -6 24 30 24 43 0 13 -24 40 -24 66 -1 25 23 80
62 88 62 16 0 -19 -43 -53 -66 -28 -18 -37 -30 -34 -44 4 -15 9 -17 23 -10 13
7 29 3 61 -15 68 -37 170 -85 181 -85 18 0 167 -79 217 -115 49 -35 113 -105
183 -198 41 -54 40 -62 -5 -134 -59 -93 -167 -259 -177 -270 -5 -6 -18 -27
-28 -45 -11 -18 -39 -64 -64 -103 -24 -38 -48 -76 -52 -82 -6 -10 58 -13 304
-13 l310 0 -6 25 c-10 42 -10 60 3 60 6 0 15 4 20 9 5 5 3 6 -4 2 -16 -9 -16
-6 1 35 14 33 14 34 20 9 3 -14 8 -51 11 -82 6 -50 9 -58 27 -58 11 0 30 10
41 23 l20 22 -6 -22 c-5 -23 -4 -23 109 -23 107 0 114 1 114 20 0 20 -19 25
-76 21 -25 -2 -34 16 -29 58 2 17 1 31 -3 31 -4 0 -8 8 -9 18 -1 9 -13 78 -27
152 -14 76 -26 173 -26 222 l0 87 35 10 c46 12 105 -7 122 -40 10 -19 13 129
13 761 -1 735 -2 786 -18 788 -9 1 -62 5 -117 8 -55 3 -108 10 -117 15 -18 10
-41 -17 -66 -74 -10 -24 -17 -28 -45 -25 -29 3 -32 0 -37 -29 -3 -17 -15 -44
-28 -58 -13 -15 -21 -33 -18 -41 3 -8 -1 -14 -9 -14 -8 0 -19 -8 -24 -17 -9
-16 -10 -14 -11 9 0 15 -4 30 -10 33 -5 3 -10 -1 -10 -9 0 -9 -5 -16 -10 -16
-11 0 -10 51 1 60 26 21 -66 96 -127 103 -16 2 -47 12 -69 21 -42 18 -140 46
-162 46 -11 0 -11 -5 -3 -21 19 -35 5 -46 -62 -54 -35 -4 -70 -11 -78 -15 -8
-4 -32 -5 -52 -3 -29 4 -39 11 -49 34 -10 25 -9 35 6 63 14 25 16 42 9 72 -8
40 -8 98 0 121 3 7 19 13 35 13 24 0 34 -7 46 -29 16 -32 41 -42 147 -61 75
-13 121 -7 93 14 -14 10 -12 14 19 29 20 9 36 21 36 27 0 5 3 9 8 9 13 -3 89
13 102 21 19 12 2 30 -28 30 l-27 1 23 19 c35 29 21 57 -40 84 -49 22 -55 22
-142 10 -51 -7 -114 -20 -141 -30 -28 -9 -78 -17 -112 -17 -35 0 -63 -4 -63
-9 0 -5 -17 -6 -37 -3 -139 18 -138 18 -201 -16 -33 -17 -65 -42 -71 -56 -7
-15 -9 -59 -5 -121 5 -73 3 -94 -6 -86 -11 11 -16 276 -5 293 6 10 -17 61 -27
61 -14 0 -18 -130 -7 -230 17 -160 21 -184 29 -199 13 -25 31 -84 26 -88 -5
-6 -53 25 -86 54 -20 18 -21 23 -8 23 22 0 28 11 22 37 -7 27 -41 37 -47 14
-3 -11 -5 -9 -6 7 0 12 4 22 10 22 5 0 7 5 4 10 -4 6 -1 17 5 25 7 8 8 15 3
15 -5 0 -8 21 -7 48 1 26 -2 57 -7 70 -9 24 -44 30 -52 10 -4 -9 -6 -8 -6 2 0
8 3 21 8 29 8 12 12 12 25 2 21 -18 21 -7 -4 82 -54 199 -104 294 -192 362
-32 25 -63 45 -69 45 -6 0 -31 12 -57 27 -49 29 -50 30 -79 32 -16 1 -16 3 -3
11 12 8 10 10 -10 9 -14 0 -43 4 -65 10 -22 6 -68 8 -102 4 -46 -4 -63 -3 -63
6 0 7 -10 2 -22 -12 -19 -22 -26 -23 -52 -14 -51 16 -56 29 -9 24 30 -3 50 1
70 14 15 10 36 16 46 13 9 -3 17 0 17 7 0 8 23 10 88 5 67 -5 83 -4 69 5 -22
13 -174 20 -202 8z m-155 -78 c0 -12 -11 -23 -32 -30 -43 -15 -48 -5 -13 24
36 30 45 31 45 6z m107 -38 c0 -7 -6 -13 -14 -13 -7 0 -13 4 -13 9 0 5 -10 12
-22 14 -13 2 -7 4 13 3 21 -1 36 -6 36 -13z m43 -23 c8 -5 11 -10 5 -10 -5 0
-17 5 -25 10 -8 5 -10 10 -5 10 6 0 17 -5 25 -10z m645 -628 c-8 -8 -13 0 -20
33 l-7 30 16 -29 c9 -16 14 -31 11 -34z m361 -108 c17 -35 17 -37 0 -50 -11
-7 -32 -10 -54 -7 -46 7 -62 20 -42 33 8 5 11 10 6 10 -21 0 19 30 40 30 13 0
24 5 24 10 0 19 9 10 26 -26z m-46 -80 c0 -2 -9 -4 -21 -4 -11 0 -18 4 -14 10
5 8 35 3 35 -6z m901 -106 c2 -62 -3 -93 -37 -225 -19 -72 -34 -134 -34 -137
0 -3 -7 -3 -15 0 -8 4 -15 2 -15 -4 0 -5 7 -13 16 -16 9 -4 12 -11 7 -18 -4
-7 -6 -22 -5 -34 2 -11 -7 -32 -18 -47 -12 -15 -17 -27 -11 -27 6 0 11 -4 11
-10 0 -5 -7 -10 -15 -10 -8 0 -19 -9 -25 -19 -6 -13 -17 -17 -30 -14 -27 7
-21 24 14 41 23 12 25 15 12 25 -13 11 -20 40 -17 75 1 9 8 11 21 7 21 -7 24
1 20 58 -1 15 3 27 8 27 5 0 14 19 21 43 7 23 24 64 38 91 30 60 46 206 22
206 -11 0 -11 2 1 10 24 16 30 12 31 -22z m-1070 -21 c-6 12 -16 23 -23 26 -7
2 -9 8 -5 13 10 10 57 -43 57 -64 0 -43 88 -176 184 -276 35 -37 46 -55 42
-70 -3 -12 -6 -26 -6 -33 0 -7 -6 -10 -14 -7 -7 3 -29 -4 -48 -15 l-34 -21
-33 30 c-18 17 -52 35 -77 41 -24 6 -44 16 -44 21 0 5 -4 6 -10 3 -6 -4 -5
-13 2 -25 7 -11 10 -21 8 -24 -8 -7 -60 6 -60 15 0 5 21 41 47 79 36 54 53 70
71 70 22 0 23 3 17 43 -8 48 -31 90 -92 165 -52 64 -56 89 -7 41 26 -24 33
-28 25 -12z m872 1 c-3 -28 -13 -51 -29 -65 -20 -19 -22 -26 -14 -48 13 -34
13 -38 -4 -32 -16 6 -36 -11 -36 -30 0 -7 8 -13 18 -14 11 0 12 -2 4 -6 -9 -4
-10 -8 -2 -18 7 -8 7 -15 1 -19 -5 -4 -12 -2 -16 4 -4 6 -11 5 -21 -4 -16 -16
-19 -30 -5 -21 5 3 12 1 15 -4 4 -5 -2 -12 -13 -16 -10 -3 -21 -18 -24 -33 -5
-22 -51 -62 -77 -66 -3 -1 -11 -5 -17 -9 -9 -5 -13 -3 -13 7 0 9 -5 16 -11 16
-6 0 -9 -7 -6 -14 6 -15 1 -18 -57 -31 -25 -5 -28 -4 -23 14 4 18 0 21 -23 21
-16 0 -35 3 -44 6 -20 8 -9 34 14 34 10 0 25 6 32 13 7 7 20 18 29 23 9 5 31
26 49 47 40 47 31 62 -43 70 -57 6 -104 14 -127 23 -15 6 68 33 103 34 10 0
25 7 34 15 8 9 28 19 44 22 16 3 29 9 29 14 0 5 6 9 13 9 7 0 26 13 41 29 38
40 66 32 66 -19 0 -26 5 -40 17 -44 24 -10 34 6 42 65 6 48 9 54 29 52 12 -2
22 2 22 7 0 6 2 10 4 10 2 0 2 -19 -1 -42z m-277 -63 c-3 -9 -10 -13 -16 -10
-5 3 -10 1 -10 -4 0 -6 -11 -11 -24 -11 -14 0 -27 -3 -30 -8 -6 -11 -96 -2
-96 10 0 5 8 8 18 6 17 -3 40 5 95 34 10 5 22 6 27 3 5 -3 12 0 15 6 11 16 29
-6 21 -26z m-196 -31 c0 -8 -5 -12 -10 -9 -6 4 -8 11 -5 16 9 14 15 11 15 -7z
m-1073 -103 c3 -21 -22 -31 -72 -30 l-30 0 30 16 c16 9 36 22 43 30 16 16 25
11 29 -16z m-34 -93 c6 -19 -3 -38 -19 -38 -8 0 -14 10 -14 25 0 26 25 35 33
13z m34 -13 c0 -8 -4 -15 -9 -15 -4 0 -8 7 -8 15 0 8 4 15 8 15 5 0 9 -7 9
-15z m-93 -16 c-8 -14 -34 -10 -34 5 0 9 7 12 20 9 11 -3 17 -9 14 -14z m-64
-9 c0 -5 -5 -10 -11 -10 -5 0 -7 5 -4 10 3 6 8 10 11 10 2 0 4 -4 4 -10z
m-300 -34 c0 -3 -4 -8 -10 -11 -5 -3 -10 -1 -10 4 0 6 5 11 10 11 6 0 10 -2
10 -4z m1055 -114 c-5 -20 -8 -23 -16 -11 -12 19 -12 62 1 54 6 -3 11 0 11 7
1 7 3 5 6 -5 3 -10 2 -30 -2 -45z m-945 -27 c14 -16 21 -27 16 -22 -11 8 -36
-44 -36 -74 0 -11 -4 -19 -9 -19 -5 0 -5 18 1 43 5 23 7 57 4 76 -3 18 -4 32
-3 30 1 -2 13 -17 27 -34z m1257 13 c-3 -8 -6 -5 -6 6 -1 11 2 17 5 13 3 -3 4
-12 1 -19z m0 -75 c-3 -10 -5 -4 -5 12 0 17 2 24 5 18 2 -7 2 -21 0 -30z m643
7 c0 -5 -7 -10 -16 -10 -8 0 -12 5 -9 10 3 6 10 10 16 10 5 0 9 -4 9 -10z
m-653 -52 c-3 -8 -6 -5 -6 6 -1 11 2 17 5 13 3 -3 4 -12 1 -19z m720 -73 c-4
-8 -11 -42 -18 -77 -6 -35 -21 -97 -33 -138 l-22 -75 -38 2 c-33 2 -135 49
-160 74 -6 5 5 9 28 9 34 0 37 2 25 16 -11 13 -10 17 4 26 10 5 15 13 12 19
-4 5 0 9 7 10 7 0 -5 7 -27 16 -74 28 -110 46 -134 64 -29 23 -5 26 26 4 34
-24 140 -22 199 4 27 12 61 27 77 34 15 6 27 15 27 19 0 5 7 8 16 8 10 0 14
-6 11 -15z m100 -15 c14 -27 2 -50 -26 -50 -36 0 -54 43 -29 68 18 18 41 11
55 -18z m-820 -27 c-3 -10 -5 -4 -5 12 0 17 2 24 5 18 2 -7 2 -21 0 -30z
m-1260 -80 c-3 -10 -5 -4 -5 12 0 17 2 24 5 18 2 -7 2 -21 0 -30z m10 -45 c-3
-8 -6 -5 -6 6 -1 11 2 17 5 13 3 -3 4 -12 1 -19z m10 -80 c-3 -8 -6 -5 -6 6
-1 11 2 17 5 13 3 -3 4 -12 1 -19z m1643 -36 c0 -31 -23 -52 -47 -46 -17 5
-23 14 -23 35 0 26 3 29 35 29 27 0 35 -4 35 -18z m-1821 -417 c-10 -10 -22
-13 -35 -8 -17 6 -17 8 6 14 40 11 45 10 29 -6z m2411 -276 c0 -15 -6 -29 -14
-32 -16 -6 -26 48 -18 93 l5 25 13 -30 c7 -16 13 -42 14 -56z m10 -58 c0 -11
-4 -23 -10 -26 -6 -4 -10 5 -10 19 0 14 5 26 10 26 6 0 10 -9 10 -19z m30 -69
c-5 -2 -10 -8 -10 -14 0 -6 7 -8 15 -4 8 3 15 1 15 -3 0 -5 3 -16 6 -25 4 -11
1 -16 -10 -16 -24 0 -47 61 -39 100 l6 32 14 -33 c9 -22 10 -35 3 -37z m31
-81 c7 12 11 11 26 -3 9 -10 13 -19 8 -19 -51 -7 -55 -6 -54 15 0 13 3 16 6 7
5 -11 7 -11 14 0z"/>
<path d="M2717 1226 c-7 -18 1 -26 25 -26 11 0 18 7 18 20 0 23 -35 28 -43 6z"/>
<path d="M2295 960 c-4 -6 -1 -18 6 -26 10 -12 14 -12 20 -2 5 7 9 19 9 26 0
15 -26 16 -35 2z"/>
<path d="M2961 154 c0 -11 3 -14 6 -6 3 7 2 16 -1 19 -3 4 -6 -2 -5 -13z"/>
<path d="M2603 2948 c2 -12 8 -22 13 -20 14 3 11 35 -4 40 -8 2 -11 -4 -9 -20z"/>
<path d="M2700 2868 c1 -7 7 -24 15 -38 15 -26 19 -12 9 28 -7 23 -24 31 -24
10z"/>
<path d="M2665 2849 c-10 -15 3 -25 16 -12 7 7 7 13 1 17 -6 3 -14 1 -17 -5z"/>
<path d="M2600 2770 c12 -16 26 -30 31 -30 5 0 0 14 -13 30 -12 17 -26 30 -31
30 -4 0 1 -13 13 -30z"/>
<path d="M2761 2763 c0 -4 4 -17 9 -28 8 -19 9 -19 9 2 1 12 -3 25 -9 28 -5 3
-10 3 -9 -2z"/>
<path d="M2746 2673 c4 -21 11 -40 15 -43 11 -7 0 -50 -13 -50 -5 0 -6 -9 -3
-20 4 -11 2 -20 -4 -20 -11 0 -14 16 -12 55 1 16 -1 16 -10 -5 -15 -35 -14
-35 -54 4 -38 38 -69 46 -79 20 -3 -8 -2 -12 4 -9 6 3 10 -1 10 -10 0 -9 16
-35 35 -58 20 -23 38 -53 41 -67 3 -14 14 -52 25 -85 11 -33 22 -73 25 -89 16
-82 44 -98 44 -25 0 35 2 39 18 30 28 -15 53 -66 40 -79 -13 -13 -5 -27 11
-18 13 9 24 62 16 86 -4 11 -20 23 -38 28 -18 5 -37 19 -44 32 -10 20 -8 28
18 59 22 27 29 46 29 77 0 37 -29 129 -30 96 0 -7 -4 -11 -10 -7 -6 4 -6 15 1
32 10 27 4 63 -12 63 -5 0 -9 6 -9 14 0 8 -5 18 -11 21 -7 5 -8 -5 -3 -32z"/>
<path d="M2841 2436 c-9 -11 -7 -23 9 -52 l20 -39 0 53 c0 53 -8 63 -29 38z"/>
<path d="M3135 2288 c-16 -4 -52 -18 -78 -31 -41 -20 -46 -25 -30 -32 47 -21
113 -29 131 -17 8 6 12 24 10 49 -3 39 -4 39 -33 31z"/>
<path d="M1635 2200 c3 -5 8 -10 11 -10 2 0 4 5 4 10 0 6 -5 10 -11 10 -5 0
-7 -4 -4 -10z"/>
<path d="M586 2189 c-32 -5 -73 -17 -90 -27 -29 -17 -31 -22 -34 -85 -3 -66
-2 -67 23 -67 14 0 27 0 30 0 3 0 23 -7 45 -16 23 -9 53 -14 69 -11 15 3 32 2
38 -4 6 -6 22 -5 44 2 45 15 46 17 53 63 4 21 9 48 12 60 6 27 -49 86 -81 86
-13 0 -29 2 -37 4 -7 2 -39 0 -72 -5z"/>
<path d="M282 2080 c0 -14 2 -19 5 -12 2 6 2 18 0 25 -3 6 -5 1 -5 -13z"/>
<path d="M310 1910 c0 -5 5 -10 11 -10 5 0 7 5 4 10 -3 6 -8 10 -11 10 -2 0
-4 -4 -4 -10z"/>
<path d="M1276 1865 c9 -37 13 -45 25 -45 15 0 10 20 -12 48 l-21 27 8 -30z"/>
<path d="M624 1168 c-20 -30 -34 -55 -49 -88 -30 -63 -35 -80 -25 -80 6 0 13
14 17 30 3 17 10 30 15 30 11 0 62 109 55 116 -3 3 -9 -1 -13 -8z"/>
<path d="M103 1064 c-7 -3 -17 -21 -23 -40 -6 -19 -16 -32 -20 -29 -5 3 -5 16
0 30 13 35 3 31 -20 -7 l-20 -33 -1 30 c0 26 -2 27 -9 10 -13 -29 -13 -1025 0
-1025 6 0 10 30 10 69 0 150 47 647 76 806 14 74 27 197 21 194 -1 0 -7 -3
-14 -5z"/>
<path d="M440 664 c0 -8 5 -12 10 -9 6 3 10 10 10 16 0 5 -4 9 -10 9 -5 0 -10
-7 -10 -16z"/>
<path d="M3047 513 c4 -38 8 -80 8 -95 0 -14 3 -24 8 -21 4 2 7 -5 7 -17 0
-20 1 -20 25 -4 22 14 25 23 25 75 0 83 -22 128 -63 129 -16 0 -17 -7 -10 -67z"/>
<path d="M3139 338 c-11 -20 -10 -21 3 -11 8 7 18 10 21 6 4 -3 7 1 7 10 0 24
-17 21 -31 -5z"/>
<path d="M3080 303 c0 -10 6 -35 14 -58 8 -22 20 -60 27 -85 8 -25 22 -61 31
-80 l18 -34 0 73 c0 60 -5 83 -31 137 -29 61 -59 84 -59 47z"/>
<path d="M450 243 c0 -5 12 -42 25 -83 14 -41 22 -82 19 -92 -9 -29 20 -21 38
10 16 27 16 29 -7 53 -13 13 -25 37 -27 54 -3 33 -49 88 -48 58z"/>
<path d="M271 214 c0 -11 3 -14 6 -6 3 7 2 16 -1 19 -3 4 -6 -2 -5 -13z"/>
<path d="M372 218 c-28 -28 6 -108 46 -108 15 0 16 -17 0 -22 -6 -2 -8 -10 -4
-17 13 -20 38 7 30 33 -10 33 -25 48 -38 37 -8 -7 -11 0 -11 22 0 18 4 35 9
38 9 7 0 29 -13 29 -4 0 -12 -5 -19 -12z"/>
<path d="M3061 204 c0 -11 3 -14 6 -6 3 7 2 16 -1 19 -3 4 -6 -2 -5 -13z"/>
<path d="M511 194 c0 -11 3 -14 6 -6 3 7 2 16 -1 19 -3 4 -6 -2 -5 -13z"/>
<path d="M280 175 c0 -34 68 -199 70 -170 0 14 -52 158 -62 170 -5 5 -8 5 -8
0z"/>
<path d="M2830 49 c0 -5 5 -7 10 -4 6 3 10 8 10 11 0 2 -4 4 -10 4 -5 0 -10
-5 -10 -11z"/>
</g>
</svg>
